HIERARCHY
ROOT Root
{
  OFFSET 0.0 0.0 0.0
  CHANNELS 6 Xposition Yposition Zposition Zrotation Yrotation Xrotation
  JOINT Hips
  {
    OFFSET 0.0 100.0 0.0
    CHANNELS 6 Xposition Yposition Zposition Zrotation Yrotation Xrotation
    JOINT Spine1
    {
      OFFSET 5.003913 -0.037094 -0.013727
      CHANNELS 3 Zrotation Yrotation Xrotation
      JOINT Spine2
      {
        OFFSET 7.125363 -1e-06 0.0
        CHANNELS 3 Zrotation Yrotation Xrotation
        JOINT Chest
        {
          OFFSET 7.594027 1e-06 0.0
          CHANNELS 3 Zrotation Yrotation Xrotation
          JOINT Neck1
          {
            OFFSET 26.313086 -0.460272 -0.181672
            CHANNELS 3 Zrotation Yrotation Xrotation
            JOINT Neck2
            {
              OFFSET 8.045911 0.0 0.0
              CHANNELS 3 Zrotation Yrotation Xrotation
              JOINT Head
              {
                OFFSET 6.432774 0.0 0.0
                CHANNELS 3 Zrotation Yrotation Xrotation
                JOINT HeadEnd
                {
                  OFFSET 16.169773 0.06451 0.00362
                  CHANNELS 3 Zrotation Yrotation Xrotation
                }
                JOINT Jaw
                {
                  OFFSET 0.108741 3.12938 0.002639
                  CHANNELS 3 Zrotation Yrotation Xrotation
                }
                JOINT LeftEye
                {
                  OFFSET 4.45173 8.166359 3.206392
                  CHANNELS 3 Zrotation Yrotation Xrotation
                }
                JOINT RightEye
                {
                  OFFSET 4.436895 8.135758 -3.222429
                  CHANNELS 3 Zrotation Yrotation Xrotation
                }
              }
            }
          }
          JOINT LeftShoulder
          {
            OFFSET 23.218927 5.195579 1.621656
            CHANNELS 3 Zrotation Yrotation Xrotation
            JOINT LeftArm
            {
              OFFSET 15.902118 2e-06 -2e-06
              CHANNELS 3 Zrotation Yrotation Xrotation
              JOINT LeftForeArm
              {
                OFFSET 28.739307 0.0 -1e-06
                CHANNELS 3 Zrotation Yrotation Xrotation
                JOINT LeftHand
                {
                  OFFSET 27.093981 -4e-06 0.0
                  CHANNELS 3 Zrotation Yrotation Xrotation
                  JOINT LeftHandThumb1
                  {
                    OFFSET 2.276781 3.380274 0.83384
                    CHANNELS 3 Zrotation Yrotation Xrotation
                    JOINT LeftHandThumb2
                    {
                      OFFSET 4.705309 -1e-06 -1e-06
                      CHANNELS 3 Zrotation Yrotation Xrotation
                      JOINT LeftHandThumb3
                      {
                        OFFSET 2.798515 0.0 3e-06
                        CHANNELS 3 Zrotation Yrotation Xrotation
                        JOINT LeftHandThumbEnd
                        {
                          OFFSET 3.180793 4e-06 -4e-06
                          CHANNELS 3 Zrotation Yrotation Xrotation
                        }
                      }
                    }
                  }
                  JOINT LeftHandIndex1
                  {
                    OFFSET 3.247786 2.352677 0.137192
                    CHANNELS 3 Zrotation Yrotation Xrotation
                    JOINT LeftHandIndex2
                    {
                      OFFSET 6.367095 1e-06 0.0
                      CHANNELS 3 Zrotation Yrotation Xrotation
                      JOINT LeftHandIndex3
                      {
                        OFFSET 3.662364 0.0 0.0
                        CHANNELS 3 Zrotation Yrotation Xrotation
                        JOINT LeftHandIndex4
                        {
                          OFFSET 2.329242 4e-06 -4e-06
                          CHANNELS 3 Zrotation Yrotation Xrotation
                          JOINT LeftHandIndexEnd
                          {
                            OFFSET 2.767823 1e-06 0.0
                            CHANNELS 3 Zrotation Yrotation Xrotation
                          }
                        }
                      }
                    }
                  }
                  JOINT LeftHandMiddle1
                  {
                    OFFSET 3.163612 0.945023 -0.406112
                    CHANNELS 3 Zrotation Yrotation Xrotation
                    JOINT LeftHandMiddle2
                    {
                      OFFSET 6.276789 3e-06 0.0
                      CHANNELS 3 Zrotation Yrotation Xrotation
                      JOINT LeftHandMiddle3
                      {
                        OFFSET 4.35652 -1e-06 4e-06
                        CHANNELS 3 Zrotation Yrotation Xrotation
                        JOINT LeftHandMiddle4
                        {
                          OFFSET 2.996877 0.0 8e-06
                          CHANNELS 3 Zrotation Yrotation Xrotation
                          JOINT LeftHandMiddleEnd
                          {
                            OFFSET 2.323256 3e-06 -4e-06
                            CHANNELS 3 Zrotation Yrotation Xrotation
                          }
                        }
                      }
                    }
                  }
                  JOINT LeftHandRing1
                  {
                    OFFSET 2.882606 -0.309162 0.107445
                    CHANNELS 3 Zrotation Yrotation Xrotation
                    JOINT LeftHandRing2
                    {
                      OFFSET 6.033198 0.0 4e-06
                      CHANNELS 3 Zrotation Yrotation Xrotation
                      JOINT LeftHandRing3
                      {
                        OFFSET 4.350578 3e-06 0.0
                        CHANNELS 3 Zrotation Yrotation Xrotation
                        JOINT LeftHandRing4
                        {
                          OFFSET 2.651321 2e-06 -7e-06
                          CHANNELS 3 Zrotation Yrotation Xrotation
                          JOINT LeftHandRingEnd
                          {
                            OFFSET 1.937663 1e-06 -4e-06
                            CHANNELS 3 Zrotation Yrotation Xrotation
                          }
                        }
                      }
                    }
                  }
                  JOINT LeftHandPinky1
                  {
                    OFFSET 2.865315 -1.525436 0.575687
                    CHANNELS 3 Zrotation Yrotation Xrotation
                    JOINT LeftHandPinky2
                    {
                      OFFSET 5.54936 1e-06 -8e-06
                      CHANNELS 3 Zrotation Yrotation Xrotation
                      JOINT LeftHandPinky3
                      {
                        OFFSET 3.070974 0.0 -4e-06
                        CHANNELS 3 Zrotation Yrotation Xrotation
                        JOINT LeftHandPinky4
                        {
                          OFFSET 1.549672 1e-06 0.0
                          CHANNELS 3 Zrotation Yrotation Xrotation
                          JOINT LeftHandPinkyEnd
                          {
                            OFFSET 1.952123 0.0 0.0
                            CHANNELS 3 Zrotation Yrotation Xrotation
                          }
                        }
                      }
                    }
                  }
                }
              }
            }
          }
          JOINT RightShoulder
          {
            OFFSET 23.161716 5.296122 -1.380114
            CHANNELS 3 Zrotation Yrotation Xrotation
            JOINT RightArm
            {
              OFFSET -16.027195 -2e-06 1.1e-05
              CHANNELS 3 Zrotation Yrotation Xrotation
              JOINT RightForeArm
              {
                OFFSET -28.736639 4e-06 2e-06
                CHANNELS 3 Zrotation Yrotation Xrotation
                JOINT RightHand
                {
                  OFFSET -27.133619 6e-06 0.0
                  CHANNELS 3 Zrotation Yrotation Xrotation
                  JOINT RightHandThumb1
                  {
                    OFFSET -2.274328 -3.351035 -0.83067
                    CHANNELS 3 Zrotation Yrotation Xrotation
                    JOINT RightHandThumb2
                    {
                      OFFSET -4.703594 -3e-06 2e-06
                      CHANNELS 3 Zrotation Yrotation Xrotation
                      JOINT RightHandThumb3
                      {
                        OFFSET -2.794935 -4e-06 -3e-06
                        CHANNELS 3 Zrotation Yrotation Xrotation
                        JOINT RightHandThumbEnd
                        {
                          OFFSET -3.183852 4e-06 1e-06
                          CHANNELS 3 Zrotation Yrotation Xrotation
                        }
                      }
                    }
                  }
                  JOINT RightHandIndex1
                  {
                    OFFSET -3.253496 -2.33755 -0.127667
                    CHANNELS 3 Zrotation Yrotation Xrotation
                    JOINT RightHandIndex2
                    {
                      OFFSET -6.344434 0.0 0.0
                      CHANNELS 3 Zrotation Yrotation Xrotation
                      JOINT RightHandIndex3
                      {
                        OFFSET -3.654871 0.0 -8e-06
                        CHANNELS 3 Zrotation Yrotation Xrotation
                        JOINT RightHandIndex4
                        {
                          OFFSET -2.327586 -1e-06 0.0
                          CHANNELS 3 Zrotation Yrotation Xrotation
                          JOINT RightHandIndexEnd
                          {
                            OFFSET -2.770001 3e-06 8e-06
                            CHANNELS 3 Zrotation Yrotation Xrotation
                          }
                        }
                      }
                    }
                  }
                  JOINT RightHandMiddle1
                  {
                    OFFSET -3.168223 -0.944764 0.411762
                    CHANNELS 3 Zrotation Yrotation Xrotation
                    JOINT RightHandMiddle2
                    {
                      OFFSET -6.266691 -1e-06 -4e-06
                      CHANNELS 3 Zrotation Yrotation Xrotation
                      JOINT RightHandMiddle3
                      {
                        OFFSET -4.348901 0.0 0.0
                        CHANNELS 3 Zrotation Yrotation Xrotation
                        JOINT RightHandMiddle4
                        {
                          OFFSET -3.00024 2e-06 -4e-06
                          CHANNELS 3 Zrotation Yrotation Xrotation
                          JOINT RightHandMiddleEnd
                          {
                            OFFSET -2.321477 -4e-06 -4e-06
                            CHANNELS 3 Zrotation Yrotation Xrotation
                          }
                        }
                      }
                    }
                  }
                  JOINT RightHandRing1
                  {
                    OFFSET -2.885654 0.293261 -0.119232
                    CHANNELS 3 Zrotation Yrotation Xrotation
                    JOINT RightHandRing2
                    {
                      OFFSET -6.032835 -1e-06 -4e-06
                      CHANNELS 3 Zrotation Yrotation Xrotation
                      JOINT RightHandRing3
                      {
                        OFFSET -4.33881 0.0 -4e-06
                        CHANNELS 3 Zrotation Yrotation Xrotation
                        JOINT RightHandRing4
                        {
                          OFFSET -2.654903 -4e-06 -4e-06
                          CHANNELS 3 Zrotation Yrotation Xrotation
                          JOINT RightHandRingEnd
                          {
                            OFFSET -1.935122 0.0 4e-06
                            CHANNELS 3 Zrotation Yrotation Xrotation
                          }
                        }
                      }
                    }
                  }
                  JOINT RightHandPinky1
                  {
                    OFFSET -2.866241 1.503904 -0.60527
                    CHANNELS 3 Zrotation Yrotation Xrotation
                    JOINT RightHandPinky2
                    {
                      OFFSET -5.553177 -2e-06 0.0
                      CHANNELS 3 Zrotation Yrotation Xrotation
                      JOINT RightHandPinky3
                      {
                        OFFSET -3.062664 -1e-06 -4e-06
                        CHANNELS 3 Zrotation Yrotation Xrotation
                        JOINT RightHandPinky4
                        {
                          OFFSET -1.546529 2e-06 4e-06
                          CHANNELS 3 Zrotation Yrotation Xrotation
                          JOINT RightHandPinkyEnd
                          {
                            OFFSET -1.952341 0.0 -4e-06
                            CHANNELS 3 Zrotation Yrotation Xrotation
                          }
                        }
                      }
                    }
                  }
                }
              }
            }
          }
        }
      }
    }
    JOINT LeftLeg
    {
      OFFSET -8.443107 2.567604 10.043214
      CHANNELS 3 Zrotation Yrotation Xrotation
      JOINT LeftShin
      {
        OFFSET 43.229198 1e-06 -1e-06
        CHANNELS 3 Zrotation Yrotation Xrotation
        JOINT LeftFoot
        {
          OFFSET 42.298611 1e-06 1e-06
          CHANNELS 3 Zrotation Yrotation Xrotation
          JOINT LeftToeBase
          {
            OFFSET 14.165858 1e-06 0.0
            CHANNELS 3 Zrotation Yrotation Xrotation
            JOINT LeftToeEnd
            {
              OFFSET 6.7141 -0.234461 0.0
              CHANNELS 3 Zrotation Yrotation Xrotation
            }
          }
        }
      }
    }
    JOINT RightLeg
    {
      OFFSET -8.303923 2.592729 -10.047278
      CHANNELS 3 Zrotation Yrotation Xrotation
      JOINT RightShin
      {
        OFFSET -43.369682 0.0 1e-06
        CHANNELS 3 Zrotation Yrotation Xrotation
        JOINT RightFoot
        {
          OFFSET -42.260784 4e-06 2e-06
          CHANNELS 3 Zrotation Yrotation Xrotation
          JOINT RightToeBase
          {
            OFFSET -14.222245 -2e-06 -1e-06
            CHANNELS 3 Zrotation Yrotation Xrotation
            JOINT RightToeEnd
            {
              OFFSET -6.660062 0.232574 -2e-06
              CHANNELS 3 Zrotation Yrotation Xrotation
            }
          }
        }
      }
    }
  }
}
MOTION
Frames: 5
Frame Time: 0.03333333333333333
0.0 0.0 0.0 0.0 -0.0 0.0 6.195723 97.821136 -1.482711 93.689674 -0.98324 90.64109 -2.096601 -2.795436 -0.727286 -11.498892 -1.460375 -2.343685 16.944256 -1.086656 -4.847367 15.435237 4.053303 2.348937 -2.514258 -1.038643 -3.562341 -39.983654 -4.463484 -0.733089 4e-06 0.0 -1e-06 0.052073 -0.066161 -0.184687 -0.173241 -0.131783 -0.218598 -0.146672 -0.009323 -0.146196 -99.700981 -76.168747 115.205582 12.301591 -19.234669 8.708916 50.056091 -0.104514 -1.177414 5.965908 -10.332642 -35.527065 17.636625 -26.322729 52.411194 -19.46666 -14.395594 29.410389 -0.0 -8.774821 -3e-06 15.840772 -18.212702 6.479636 -0.609776 -1.795653 -3.889327 -4.80709 -11.046808 -2.937849 8e-06 -20.976015 -1e-06 -5.019968 -25.033552 -4.031882 7e-06 -2e-06 2e-06 -10.634531 -5.686968 -3.565588 10.573275 -17.922949 -3.113905 4e-06 -13.821206 1e-06 -0.501773 -31.181498 -4.027016 -11.479552 -59.239288 7.135449 -13.982711 -7.150198 -2.875042 13.77273 -8.401492 -3.218241 0.347737 -34.211544 0.77165 -0.963029 -17.733368 2.621019 1e-06 2e-06 0.0 -17.346409 -20.095217 -4.201783 21.757551 -1.638376 3.866426 2e-06 -6.338823 2e-06 -1.697587 -22.591743 -6.194006 -2e-06 -4e-06 -1e-06 58.054382 -63.76244 138.625214 17.328461 -25.174002 -10.616965 45.380043 -0.472179 0.819753 1.122948 -7.890387 -22.33317 22.182117 -20.375895 49.933327 -16.701807 -16.743528 28.476528 -1e-06 -12.6906 -1e-06 15.231459 -17.932878 3.392066 -0.10592 -1.513853 -4.275881 -5.039041 -5.612874 -2.953557 2e-06 -11.02052 -1e-06 -6.111295 -15.89533 -3.840472 2e-06 0.0 -1e-06 -10.283367 -5.680288 -4.34184 11.02829 -11.302402 -2.372632 -1.384269 -14.238577 -6.320122 -0.625437 -26.924181 -3.827602 -4.85649 -49.65871 -3.073272 -13.708526 -7.363477 -3.720939 18.141146 -14.052737 -3.242671 4e-06 -18.78727 -0.0 -0.429711 -8.456042 2.555505 1e-06 1e-06 0.0 -15.923532 -20.094481 -5.473588 30.419207 -7.190826 1.735929 3e-06 -8.162925 -1e-06 -1.861903 -22.861467 -6.167942 -2e-06 -2e-06 -1e-06 -169.986588 4.994279 -1.804728 8.476314 -0.074613 0.002015 -85.81076 1.851813 0.901149 -6.818001 1.246735 2.012104 -0.999998 0.0 0.0 -28.138363 -6.373831 -3.72882 9.912786 0.105028 -0.15291 -67.669319 -5.951711 -12.665661 -8.810283 1.085178 1.495456 -1.0 -0.0 0.0 
0.0 0.0 0.0 0.0 -0.0 0.0 5.681489 97.386391 1.290865 93.321686 -1.549236 91.408363 -2.438563 -2.502898 -0.80145 -11.584711 -1.435915 -2.430255 16.789253 -0.885127 -5.021654 15.565365 4.377318 2.387239 -2.531708 -1.037508 -3.628894 -39.657761 -4.911596 -0.71204 6e-06 -0.0 -1e-06 0.035347 -0.051883 -0.158391 -0.151361 -0.125638 -0.197818 -0.116463 0.012748 -0.114317 -100.300522 -76.269875 115.965355 11.838213 -18.447802 9.156583 49.594822 -0.242257 -1.109722 6.549242 -10.797928 -35.312759 17.636635 -26.322733 52.411205 -19.46666 -14.395598 29.410389 -0.0 -8.774822 -3e-06 15.783111 -18.016155 6.414061 -0.609775 -1.795653 -3.889327 -4.807088 -11.046809 -2.937849 6e-06 -20.976015 0.0 -5.019969 -25.033554 -4.031881 6e-06 -0.0 -1e-06 -10.634532 -5.68697 -3.565587 10.573275 -17.922949 -3.113901 3e-06 -13.821206 2e-06 -0.501776 -31.181505 -4.02701 -11.375874 -59.162613 7.170087 -13.982712 -7.150198 -2.875044 13.772728 -8.401489 -3.218238 0.347732 -34.211544 0.771656 -0.96303 -17.733366 2.62102 -1e-06 2e-06 0.0 -17.346415 -20.095217 -4.201784 21.757559 -1.638376 3.866429 1e-06 -6.338822 1e-06 -1.69759 -22.591743 -6.194003 -1e-06 -5e-06 -2e-06 57.786831 -63.321079 138.918884 16.546284 -24.602848 -9.514113 44.715553 -0.184258 1.021061 1.29422 -8.093101 -23.141918 22.182117 -20.375898 49.933327 -16.701811 -16.743526 28.47653 -3e-06 -12.690601 -1e-06 15.222132 -17.935896 3.413979 -0.105919 -1.513854 -4.275882 -5.039041 -5.612874 -2.953558 3e-06 -11.020523 -1e-06 -6.111296 -15.895332 -3.840472 1e-06 0.0 -0.0 -10.283369 -5.680286 -4.34184 11.028293 -11.302405 -2.372633 -1.384268 -14.238581 -6.320121 -0.625434 -26.924191 -3.827603 -4.707223 -49.691551 -3.125085 -13.708526 -7.363474 -3.72094 18.141146 -14.052738 -3.242672 7e-06 -18.78727 -1e-06 -0.429711 -8.456043 2.555504 1e-06 1e-06 0.0 -15.923539 -20.094482 -5.473584 30.419214 -7.190827 1.735929 6e-06 -8.162927 -1e-06 -1.861901 -22.861473 -6.167942 -1e-06 -2e-06 -1e-06 -168.493576 4.093656 -1.47097 7.978033 -0.051855 0.089087 -86.5811 2.221112 0.846775 -6.768632 1.248767 2.037447 -0.999999 0.0 -0.0 -27.92382 -5.636278 -3.734484 6.435189 0.057287 -0.189574 -68.073441 -6.158237 -12.371577 -8.807582 1.061773 1.454735 -1.000003 -0.0 -0.0 
0.0 0.0 0.0 0.0 -0.0 0.0 5.079789 97.069229 4.248115 92.459015 -2.041222 92.171722 -2.860768 -1.957624 -0.807487 -11.741911 -1.430089 -2.67095 16.872162 -0.463949 -5.055019 15.246333 4.668658 2.309854 -2.529395 -1.094836 -3.579494 -38.853603 -5.382928 -0.827735 7e-06 -0.0 -0.0 0.030367 -0.051316 -0.170288 -0.117139 -0.134152 -0.208837 -0.083721 0.022284 -0.126013 -102.461693 -76.194183 118.055832 11.20857 -17.872812 9.444817 49.238754 -0.400111 -1.078453 6.816841 -11.550271 -35.658726 17.636625 -26.322731 52.411201 -19.466665 -14.395598 29.410395 -1e-06 -8.774822 -2e-06 15.876128 -18.007854 6.258659 -0.609775 -1.795651 -3.889327 -4.807087 -11.046813 -2.93785 4e-06 -20.976021 -0.0 -5.019968 -25.03356 -4.031882 6e-06 0.0 -0.0 -10.634537 -5.686971 -3.565588 10.573275 -17.922951 -3.113902 3e-06 -13.821209 -1e-06 -0.501775 -31.181507 -4.027018 -11.303767 -59.161652 6.999685 -13.982713 -7.150197 -2.875041 13.772727 -8.401494 -3.218243 0.347735 -34.211555 0.771653 -0.963029 -17.733372 2.621019 1e-06 1e-06 0.0 -17.346418 -20.095219 -4.201782 21.757557 -1.638375 3.866426 0.0 -6.338823 2e-06 -1.69759 -22.591745 -6.194004 -1e-06 -2e-06 -1e-06 56.862125 -62.865437 139.657837 15.778048 -24.048979 -8.542645 43.746265 0.045052 1.104554 1.450199 -8.39875 -23.776463 22.182116 -20.375893 49.933319 -16.701813 -16.743528 28.476532 -1e-06 -12.690601 -1e-06 15.172092 -18.006176 3.456366 -0.10592 -1.513854 -4.275882 -5.03904 -5.612873 -2.953558 3e-06 -11.020523 -3e-06 -6.1113 -15.895332 -3.840472 0.0 -0.0 0.0 -10.283371 -5.680293 -4.341839 11.028292 -11.302403 -2.372635 -1.384268 -14.238581 -6.320121 -0.625434 -26.924183 -3.827606 -4.681589 -49.645798 -3.211537 -13.708526 -7.363475 -3.72094 18.14115 -14.052739 -3.242675 5e-06 -18.78727 -4e-06 -0.429711 -8.456041 2.555504 2e-06 1e-06 1e-06 -15.923534 -20.094482 -5.473586 30.41921 -7.190823 1.735926 4e-06 -8.162925 -1e-06 -1.8619 -22.861469 -6.167945 -0.0 -2e-06 -1e-06 -166.637543 2.553421 -1.339612 7.044692 -0.058159 0.119526 -86.561958 2.729707 0.982862 -7.022367 1.210905 2.073745 -0.999999 -0.0 0.0 -26.952682 -4.478907 -3.429604 5.492504 0.027433 -0.165422 -67.03495 -6.73947 -11.09225 -9.003938 1.106618 1.472609 -1.000001 -0.0 1e-06 
0.0 0.0 0.0 0.0 -0.0 0.0 4.335614 96.95475 7.372715 90.644257 -2.637198 92.821365 -3.486803 -0.856618 -0.808255 -12.066402 -1.380252 -2.830426 17.158857 0.382643 -5.084435 14.625602 4.730838 2.276443 -2.565368 -1.072613 -3.485452 -37.801369 -5.740038 -0.892117 6e-06 -0.0 0.0 0.021112 -0.034134 -0.15054 -0.092515 -0.119852 -0.179489 -0.053212 0.042775 -0.115384 -107.1381 -75.585274 122.689667 10.576765 -16.98987 9.669211 49.185982 -0.504411 -1.051602 6.699893 -12.165574 -36.262882 17.636623 -26.322731 52.411194 -19.466656 -14.395596 29.410389 0.0 -8.774821 -1e-06 16.091036 -18.120581 6.119543 -0.609779 -1.795654 -3.889328 -4.807088 -11.046809 -2.937849 3e-06 -20.976015 -0.0 -5.019972 -25.033552 -4.031879 6e-06 -1e-06 -1e-06 -10.634533 -5.686968 -3.565586 10.573271 -17.922945 -3.113901 -0.0 -13.821204 2e-06 -0.50178 -31.181494 -4.027012 -11.384619 -59.170757 7.141344 -13.982712 -7.150197 -2.875041 13.772727 -8.401491 -3.218241 0.347731 -34.211544 0.771658 -0.963031 -17.733366 2.62102 1e-06 1e-06 0.0 -17.346418 -20.095213 -4.20178 21.757557 -1.638373 3.866427 0.0 -6.338822 2e-06 -1.697591 -22.59174 -6.194002 -1e-06 -6e-06 -3e-06 54.906582 -62.242409 141.309433 14.942009 -23.176964 -8.254218 42.824253 0.003708 1.09699 1.490134 -8.727664 -23.993246 22.182112 -20.375898 49.933315 -16.701809 -16.743525 28.476526 -2e-06 -12.690597 -2e-06 15.115571 -18.040548 3.452565 -0.105919 -1.513856 -4.275882 -5.039041 -5.612873 -2.953555 3e-06 -11.02052 -1e-06 -6.111295 -15.89533 -3.840468 0.0 -0.0 1e-06 -10.283367 -5.680286 -4.341837 11.028288 -11.302402 -2.37263 -1.384266 -14.238577 -6.320119 -0.625437 -26.924183 -3.827597 -4.59537 -49.774593 -3.26532 -13.708523 -7.363478 -3.720937 18.141146 -14.052736 -3.242673 4e-06 -18.78727 -1e-06 -0.429713 -8.456043 2.555504 1e-06 0.0 0.0 -15.923536 -20.094482 -5.473582 30.419205 -7.190826 1.735926 2e-06 -8.162927 -1e-06 -1.8619 -22.861469 -6.167941 0.0 -4e-06 -2e-06 -164.991379 -0.062987 -2.313159 6.234233 -0.068734 0.208122 -85.896973 3.65418 0.82884 -7.998305 1.236161 2.078078 -0.999999 -0.0 0.0 -25.668554 -2.311074 -3.160663 5.09847 -0.043342 -0.271128 -63.121746 -7.435532 -9.39292 -9.290565 1.101645 1.519495 -1.000001 0.0 0.0 
0.0 0.0 0.0 0.0 -0.0 0.0 3.550818 96.944008 10.453455 88.625626 -3.139746 93.242371 -4.025265 0.270438 -0.857981 -12.376516 -1.305271 -2.85413 17.32408 1.490233 -5.078679 13.961383 4.632047 2.300138 -2.64048 -1.082069 -3.439076 -37.063267 -5.902004 -0.925924 7e-06 -0.0 -1e-06 -0.020391 -0.044201 -0.170713 -0.062455 -0.122336 -0.182805 -0.011119 0.025283 -0.153327 -110.993538 -74.728745 126.322845 9.757925 -16.627588 9.770212 49.278404 -0.703484 -0.969679 6.337809 -12.35612 -36.923717 17.636633 -26.322737 52.411205 -19.466658 -14.395598 29.410389 -1e-06 -8.774821 -2e-06 16.268322 -18.153608 6.021744 -0.609779 -1.795654 -3.889329 -4.807087 -11.04681 -2.93785 3e-06 -20.976019 1e-06 -5.01997 -25.033556 -4.031881 7e-06 -3e-06 -0.0 -10.634535 -5.686971 -3.565587 10.573274 -17.922949 -3.1139 2e-06 -13.821205 1e-06 -0.501777 -31.181505 -4.027014 -11.551146 -59.239174 7.361477 -13.982712 -7.150197 -2.875043 13.77273 -8.401491 -3.218241 0.347733 -34.211544 0.771656 -0.963029 -17.733366 2.621021 1e-06 2e-06 -2e-06 -17.346416 -20.095217 -4.201782 21.757559 -1.638375 3.866428 0.0 -6.338823 1e-06 -1.69759 -22.591742 -6.194004 -1e-06 -6e-06 -2e-06 53.137367 -61.972717 142.81813 14.256329 -22.7145 -8.435655 41.757908 -0.011441 1.157788 1.601511 -8.968346 -24.233255 22.182116 -20.3759 49.933323 -16.701817 -16.743534 28.476534 -4e-06 -12.690603 -0.0 15.214949 -18.118521 3.330938 -0.10592 -1.513855 -4.275882 -5.03904 -5.612871 -2.953557 4e-06 -11.020523 -0.0 -6.111296 -15.895332 -3.84047 -0.0 0.0 0.0 -10.283373 -5.680285 -4.341839 11.028296 -11.302406 -2.372632 -1.384265 -14.23858 -6.320121 -0.625435 -26.924191 -3.827601 -4.31192 -49.811584 -3.63551 -13.708526 -7.363475 -3.720942 18.14115 -14.05274 -3.242674 6e-06 -18.78727 -0.0 -0.429711 -8.456045 2.555504 0.0 0.0 -0.0 -15.923536 -20.094482 -5.473587 30.419214 -7.190826 1.735926 1e-06 -8.162926 0.0 -1.861904 -22.861467 -6.16794 1e-06 -4e-06 -1e-06 -164.045639 -2.827432 -3.885576 6.857104 -0.085455 0.279608 -84.888542 4.607157 0.463848 -9.603707 1.239651 2.061034 -0.999999 0.0 -0.0 -24.603384 0.047741 -3.319047 4.938053 -0.120927 -0.394458 -57.479992 -7.252647 -8.6545 -8.980219 1.012812 1.532211 -1.000002 -0.0 0.0 
